# xmcd
#
# Track frame offsets: 
#        150
#        16076
#        35312
#        58913
#        79427
#        95050
#        109164
#        129816
#        153549
#        173281
#        186734
#        209004
#
# Disc length: 3066 seconds
#
# Revision: 0
# Processed by: cddbd v1.5.2PL0 Copyright (c) Steve Scherf et al.
# Submitted via: ExactAudioCopyFreeDBPlugin 1.0
#
DISCID=a20bf80c
DTITLE=The Avett Brothers - True Sadness
DYEAR=2016
DGENRE=Folk/Rock
TTITLE0=Ain't No Man
TTITLE1=Mama, I Don't Believe
TTITLE2=No Hard Feelings
TTITLE3=Smithsonian
TTITLE4=You Are Mine
TTITLE5=Satan Pulls The Strings
TTITLE6=True Sadness
TTITLE7=I Wish I Was
TTITLE8=Fisher Road To Hollywood
TTITLE9=Victims Of Life
TTITLE10=Divorce Separation Blues
TTITLE11=May It Last
EXTD=
EXTT0=
EXTT1=
EXTT2=
EXTT3=
EXTT4=
EXTT5=
EXTT6=
EXTT7=
EXTT8=
EXTT9=
EXTT10=
EXTT11=
PLAYORDER=
